<svg xmlns="http://www.w3.org/2000/svg" width="56" height="54" viewBox="0 0 56 54">
    <g fill="none" fill-rule="evenodd">
        <g fill-rule="nonzero" stroke="#000" stroke-width="0.4">
            <g>
                <g>
                    <g>
                        <path d="M50.983.5c.888 0 1.702.341 2.298.905.699.802 1.032 1.567 1.032 2.424h0v37.037c0 .92-.372 1.765-.968 2.362-.622.621-1.44.997-2.362.997h0-16.315c-.587.058-.92.272-1.175.6h0l-6.087 8.1-6.016-7.996c-.26-.415-.724-.704-1.271-.704h0H3.83c-.888 0-1.704-.342-2.298-.933C.834 42.519.5 41.728.5 40.866h0V3.829c0-.888.341-1.702.904-2.298C2.206.832 2.971.5 3.83.5h0z" transform="translate(-191.000000, -7152.000000) translate(0.000000, 7044.000000) translate(191.594000, 108.030000) translate(-0.000000, 0.000000)"/>
                    </g>
                </g>
            </g>
        </g>
    </g>
</svg>
