<?xml version="1.0" encoding="UTF-8"?>
<svg width="84px" height="66px" viewBox="0 0 84 66" version="1.1" xmlns="http://www.w3.org/2000/svg" xmlns:xlink="http://www.w3.org/1999/xlink">
    <title>6D4C5FA1-6AEA-48DE-BEA8-100886472AD3</title>
    <g id="Page-1" stroke="none" stroke-width="0.4" fill="none" fill-rule="evenodd">
        <g id="Constellation-Canvas" transform="translate(-46.000000, -7304.000000)" fill-rule="nonzero" stroke="#000000">
            <g id="Text-Controls" transform="translate(0.000000, 7044.000000)">
                <g id="Group" transform="translate(46.800000, 261.000000)">
                    <path d="M4.7,57.1 L4.92585079,57.1043743 C7.31928375,57.197337 9.1969697,58.7606061 9.1,60.7 C9,62.7 7.1,64.2 4.6,64.2 L4.6,64.2 L4.5,64.2 C2,64.2 0.1,62.6 0.1,60.6 C0.2,58.6 2.1,57.1 4.7,57.1 L4.7,57.1 Z M15.4,51.5 C18.7,51.6 21.3,53.7 21.3,56.2 C21.3,58.7 18.7,60.7 15.4,60.7 L15.4,60.7 L15.3,60.7 C11.9,60.7 9.4,58.6 9.4,56 C9.4,53.5 12,51.5 15.3,51.5 L15.3,51.5 Z M34.4,0 C39.3,0 43.9,1.9 46.9,5.1 C49.3,4 52,3.4 54.7,3.4 C63.4,3.4 70.5,9.3 70.5,16.5 L70.5,16.5 L70.5,16.6 C77.5,18.1 82.4,23.2 82.4,29.2 C82.4,35.1 77.6,40.2 70.8,41.7 L70.8,41.7 L70.8,42.4 C70.8,49.5 63.7,55.4 55,55.4 C51.4,55.4 48,54.4 45.2,52.6 C42.2,55 38.3,56.3 34.2,56.3 C28,56.3 22.5,53.3 19.9,48.8 C18.5,49.1 17.1,49.3 15.8,49.3 C7.1,49.3 0,43.4 0,36.2 C0,33.1 1.3,30.1 3.7,27.8 C2.7,26 2.1,24 2.1,22.1 C2.1,18.6 3.8,15.3 6.9,12.8 C9.9,10.4 13.8,9.1 18,9.1 L18,9.1 L18.2408,9.1104 C18.564,9.136 18.9,9.2 19.3,9.2 C21.3,3.8 27.4,0 34.4,0 Z" id="Combined-Shape"></path>
                </g>
            </g>
        </g>
    </g>
</svg>