<?xml version="1.0" encoding="UTF-8"?>
<svg width="90px" height="85px" viewBox="0 0 90 85" version="1.1" xmlns="http://www.w3.org/2000/svg" xmlns:xlink="http://www.w3.org/1999/xlink">
    <title>D9A93E2C-DD49-4338-94C3-3679BB10D8D2</title>
    <g id="Page-1" stroke="none" stroke-width="0.4" fill="none" fill-rule="evenodd">
        <g id="Constellation-Canvas" transform="translate(-175.000000, -7295.000000)" fill-rule="nonzero" stroke="#000000">
            <g id="Text-Controls" transform="translate(0.000000, 7044.000000)">
                <g id="Lego" transform="translate(175.700000, 251.000000)">
                    <g id="shout" transform="translate(44.162500, 42.450000) scale(-1, 1) translate(-44.162500, -42.450000) ">
                        <path d="M41.63515,0.614265109 C42.137113,0.5 42.2614281,0.539049242 42.36485,0.614265109 C42.4788295,0.697159345 42.5664348,0.819707683 42.6286338,0.968278411 L42.6286338,0.968278411 L47.60815,17.1781929 L59,2.2 C59.0899385,2.08008202 59.2088394,1.98742022 59.3455937,1.94534198 C59.4608378,1.90988224 59.5876537,1.91357796 59.7143047,1.96423835 C59.8707193,2.02680419 59.9996232,2.11674641 60.0857349,2.23515005 C60.1593157,2.33632371 60.1982852,2.45749224 60.1999447,2.59107663 L60.1999447,2.59107663 L59.5721779,17.8667354 L78.8143501,12.4872034 C78.9615477,12.4608586 79.1082836,12.4763836 79.2410077,12.5274314 C79.3816487,12.581524 79.506422,12.6752293 79.6,12.8 C79.6857143,12.9142857 79.725,13.0579137 79.725,13.2 C79.725,13.3420863 79.6857143,13.4857143 79.6028211,13.5962749 L79.6028211,13.5962749 L68.6891534,27.8679942 L86.7120589,30.5923869 C86.8599337,30.6241024 86.9925568,30.6996636 87.0964466,30.8035534 C87.2027001,30.9098069 87.2793213,31.0461161 87.3097097,31.1980581 C87.3354287,31.3266533 87.307945,31.4542951 87.252933,31.564319 C87.1907332,31.6887186 87.0926642,31.7946509 86.9740487,31.8539663 L86.9740487,31.8539663 L70.9069721,39.9932091 L87.4541514,48.6356849 C87.5979612,48.7244839 87.7036319,48.8382433 87.7642527,48.9695884 C87.8260358,49.1034518 87.839503,49.2529754 87.8097097,49.4019419 C87.7823504,49.5387385 87.6942978,49.6574686 87.5783603,49.7444217 C87.4514986,49.839568 87.2889696,49.897336 87.1123334,49.8999102 L87.1123334,49.8999102 L65.0063469,48.6660877 L66.6105069,58.5049355 C66.6818292,58.7495416 66.5176819,58.9752113 66.3464466,59.1464466 C66.1707599,59.3221333 65.878373,59.2768534 65.6551008,59.2232292 L65.6551008,59.2232292 L56.047104,55.2926851 L61.1097097,83.4980581 C61.1357221,83.6281205 61.1055269,83.7567668 61.0427988,83.8732618 C60.9579871,84.0307694 60.816141,84.1672202 60.6427521,84.2712535 C60.620761,84.2844482 60.5985486,84.2969497 60.5761825,84.3087245 C60.5687744,84.3211211 60.5590926,84.3338006 60.5464466,84.3464466 C60.487868,84.4050253 60.4285714,84.4 60.4,84.4 C60.2239723,84.4 59.9972303,84.2798849 59.8712539,84.1634475 L59.8712539,84.1634475 L40.1076287,59.2308741 L28.9226499,66.5839749 C28.7290749,66.7130248 28.4688168,66.676816 28.2212678,66.6149287 C28.1269716,66.5913547 28.0573676,66.5432816 28.007889,66.4741872 C27.9492341,66.3922786 27.9130291,66.2905635 27.8850713,66.1787322 L27.8850713,66.1787322 L25.0607115,54.8812932 L11.5734424,58.6162292 C11.4501077,58.6460398 11.3109916,58.6440595 11.1813784,58.6008551 C11.0752533,58.5654801 10.9756117,58.5008156 10.9,58.4 C10.806774,58.2756986 10.7368465,58.1534848 10.7082253,58.0284406 C10.6844403,57.9245255 10.6969496,57.8209242 10.750409,57.7173165 L10.750409,57.7173165 L15.9640908,46.3514902 L0.915891104,39.5488794 C0.791953683,39.4853269 0.683263267,39.3911127 0.607692462,39.2723585 C0.539998357,39.1659821 0.5,39.0396466 0.5,38.9 C0.5,38.7688412 0.534236173,38.6481632 0.607990488,38.5559703 C0.68093538,38.4647892 0.791010456,38.4068083 0.923902879,38.3856549 L0.923902879,38.3856549 L14.0141068,34.0574423 L3.2,19.5 C3.11621201,19.3882827 3.07240943,19.2632153 3.06273884,19.1374977 C3.05171954,18.9942468 3.08364395,18.8507461 3.1472136,18.7236068 C3.19539082,18.6272523 3.28352566,18.5605798 3.38254,18.5110726 C3.52620981,18.4392377 3.69686555,18.4041941 3.86820633,18.4003555 L3.86820633,18.4003555 L22.4654112,20.9690302 L23.4001227,6.0136471 C23.3976788,5.87722366 23.431685,5.75135209 23.5079905,5.65597027 C23.576152,5.57076834 23.6767338,5.51455519 23.7980581,5.49029034 C23.8235907,5.48518382 23.8488195,5.48173674 23.8736355,5.47995764 C23.888726,5.46740914 23.9053103,5.45636182 23.9236068,5.4472136 C24.0020188,5.4080076 24.0894678,5.41488571 24.1712003,5.43531883 C24.3094249,5.46987499 24.4399215,5.54979192 24.538336,5.64555306 L24.538336,5.64555306 L35.1789862,17.445086 L41.3642383,0.985695338 C41.4268042,0.829280738 41.5167464,0.700376846 41.63515,0.614265109 Z" id="Shape"></path>
                    </g>
                </g>
            </g>
        </g>
    </g>
</svg>