<?xml version="1.0" encoding="UTF-8"?>
<svg width="48px" height="48px" viewBox="0 0 48 48" version="1.1" xmlns="http://www.w3.org/2000/svg" xmlns:xlink="http://www.w3.org/1999/xlink">
    <title>DD85DFFF-E576-4936-A1E7-8848A37350DB</title>
    <g id="Page-1" stroke="none" stroke-width="1" fill="none" fill-rule="evenodd">
        <g id="Constellation-Canvas" transform="translate(-65.000000, -9257.000000)">
            <g id="Emoticons" transform="translate(0.000000, 8988.000000)">
                <g id="1F632" transform="translate(66.000000, 270.000000)">
                    <g id="color" fill-rule="nonzero">
                        <circle id="Oval" fill="#FCEA2B" cx="23" cy="23" r="23"></circle>
                        <path d="M30.1797,38.8701 L15.8106,38.8701 C15.8106,34.8701 18.2002,31.6905 22.9903,31.6905 C27.7793,31.6905 30.2002,34.8799 30.2002,38.8701" id="Path" fill="#FFFFFF"></path>
                    </g>
                    <g id="line">
                        <path d="M30.1797,38.8701 L15.8106,38.8701 C15.8106,34.8701 18.2002,31.6905 22.9903,31.6905 C27.7793,31.6905 30.2002,34.8799 30.2002,38.8701" id="Path" stroke="#000000" stroke-width="2" stroke-linecap="round" stroke-linejoin="round"></path>
                        <path d="M7.2793,14.2002 C8,12.8145 9.2071,11.7461 10.67,11.2002 C12.0752,10.5 13.6905,10.3516 15.2002,10.7793" id="Path" stroke="#000000" stroke-width="2" stroke-linecap="round" stroke-linejoin="round"></path>
                        <path d="M37.8897,14.2002 C36.3077,11.4278 33.086,10.0303 29.9805,10.7696" id="Path" stroke="#000000" stroke-width="2" stroke-linecap="round" stroke-linejoin="round"></path>
                        <circle id="Oval" stroke="#000000" stroke-width="2" stroke-linecap="round" stroke-linejoin="round" cx="23" cy="23" r="23"></circle>
                        <path d="M17,21 C17,22.6568 15.6552,24 14,24 C12.3447,24 11,22.6567 11,21 C11,19.3448 12.3447,18 14,18 C15.6552,18 17,19.3448 17,21" id="Path" fill="#000000" fill-rule="nonzero"></path>
                        <path d="M35,21 C35,22.6568 33.6553,24 32,24 C30.3447,24 29,22.6567 29,21 C29,19.3448 30.3447,18 32,18 C33.6553,18 35,19.3448 35,21" id="Path" fill="#000000" fill-rule="nonzero"></path>
                        <path d="M7.6948,14.2002 C8.4155,12.8145 9.6226,11.7461 11.0855,11.2002 C12.4907,10.5 14.106,10.3516 15.6157,10.7793" id="Path" stroke="#000000" stroke-width="2" stroke-linecap="round" stroke-linejoin="round"></path>
                        <path d="M38.3052,14.2002 C36.7232,11.4278 33.5015,10.0303 30.396,10.7696" id="Path" stroke="#000000" stroke-width="2" stroke-linecap="round" stroke-linejoin="round"></path>
                    </g>
                </g>
            </g>
        </g>
    </g>
</svg>