<?xml version="1.0" encoding="UTF-8"?>
<svg width="48px" height="48px" viewBox="0 0 48 48" version="1.1" xmlns="http://www.w3.org/2000/svg" xmlns:xlink="http://www.w3.org/1999/xlink">
    <title>817CCB23-3CCF-46E0-ADA7-D4F0FDF6D046</title>
    <g id="Page-1" stroke="none" stroke-width="1" fill="none" fill-rule="evenodd">
        <g id="Constellation-Canvas" transform="translate(-196.000000, -9257.000000)">
            <g id="Emoticons" transform="translate(0.000000, 8988.000000)">
                <g id="1F9D0" transform="translate(196.000000, 269.000000)">
                    <g id="color" fill="#FCEA2B" fill-rule="nonzero">
                        <circle id="Oval" cx="24" cy="24" r="24"></circle>
                    </g>
                    <g id="line" transform="translate(1.000036, 0.999936)">
                        <path d="M15.8232638,31.2876642 C18.1918638,30.6213642 27.6874638,31.8226642 29.8677638,33.3508642" id="Path" stroke="#000000" stroke-width="2" stroke-linecap="round" stroke-linejoin="round"></path>
                        <path d="M9.30116381,10.3391642 C10.5833638,9.45016424 12.1477638,9.06816424 13.6948638,9.26696424 C15.2627638,9.30256424 16.7594638,9.92366424 17.8944638,11.0047642" id="Path" stroke="#000000" stroke-width="2" stroke-linecap="round" stroke-linejoin="round"></path>
                        <path d="M36.0442638,14.3182642 C33.6293638,12.5939642 30.6929638,14.3182642 27.8109638,14.0578642" id="Path" stroke="#000000" stroke-width="2" stroke-linecap="round" stroke-linejoin="round"></path>
                        <path d="M16.9999638,18.0000642 C16.9999638,19.6568642 15.6551638,21.0000642 13.9999638,21.0000642 C12.3446638,21.0000642 10.9999638,19.6567642 10.9999638,18.0000642 C10.9999638,16.3448642 12.3446638,15.0000642 13.9999638,15.0000642 C15.6551638,15.0000642 16.9999638,16.3448642 16.9999638,18.0000642" id="Path" fill="#000000" fill-rule="nonzero"></path>
                        <path d="M33.9999638,20.0000642 C33.9999638,21.6568642 32.6552638,23.0000642 30.9999638,23.0000642 C29.3446638,23.0000642 27.9999638,21.6567642 27.9999638,20.0000642 C27.9999638,18.3448642 29.3446638,17.0000642 30.9999638,17.0000642 C32.6552638,17.0000642 33.9999638,18.3448642 33.9999638,20.0000642" id="Path" fill="#000000" fill-rule="nonzero"></path>
                        <path d="M42.6436638,34.9697642 C44.7638638,31.4976642 45.9896638,27.4191642 45.9999276,23.0537642 C46.0294638,10.3506642 35.7557638,0.0296642379 23.0536638,-1.77635684e-15 C10.3505638,-0.0296357621 0.0297638066,10.2431642 -3.55271368e-15,22.9462642 C-0.0295361934,35.6484642 10.2432638,45.9703642 22.9462638,46.0000287 C28.1552638,46.0121642 32.9638638,44.2915642 36.8266638,41.3813642" id="Path" stroke="#000000" stroke-width="2" stroke-linecap="round" stroke-linejoin="round"></path>
                        <circle id="Oval" stroke="#000000" stroke-width="2" stroke-linecap="round" stroke-linejoin="round" cx="30.9285638" cy="17.8098642" r="9.4209"></circle>
                        <path d="M40.6875638,17.9567642 C40.6875638,17.9567642 42.9002638,18.5078642 42.6112638,21.9695642 C42.3222638,25.4312642 39.0421638,29.9316642 39.0421638,29.9316642 C39.0421638,29.9316642 37.0213638,32.2940642 37.5814638,34.2535642 C38.2979638,36.7600642 41.8961638,40.6902642 41.7623638,42.8634642" id="Path" stroke="#000000" stroke-width="2" stroke-linecap="round" stroke-linejoin="round"></path>
                    </g>
                </g>
            </g>
        </g>
    </g>
</svg>