<?xml version="1.0" encoding="UTF-8"?>
<svg width="48px" height="48px" viewBox="0 0 48 48" version="1.1" xmlns="http://www.w3.org/2000/svg" xmlns:xlink="http://www.w3.org/1999/xlink">
    <title>291E347B-CF2B-4B75-8E38-1BB7A23EEF53</title>
    <g id="Page-1" stroke="none" stroke-width="1" fill="none" fill-rule="evenodd">
        <g id="Constellation-Canvas" transform="translate(-64.000000, -9099.000000)">
            <g id="Emoticons" transform="translate(0.000000, 8988.000000)">
                <g id="1F600" transform="translate(65.000000, 112.000000)">
                    <g id="color" fill-rule="nonzero">
                        <circle id="Oval" fill="#FCEA2B" cx="23" cy="23" r="23"></circle>
                        <path d="M37.595,28.64 C37.607,30.1797 37.3112,31.7062 36.725,33.13 C24.235,36.16 11.295,33.47 9.235,33 C8.6762,31.6148 8.3943,30.1336 8.405,28.64 L8.515,28.64 C8.515,28.64 23.315,32.23 37.405,28.71 L37.595,28.64 Z" id="Path" fill="#FFFFFF"></path>
                        <path d="M36.7251,33.13 C34.9351,37.4 30.3751,40.36 23.0351,40.36 C15.6251,40.36 11.0051,37.33 9.2351,33 C11.2951,33.47 24.235,36.16 36.7251,33.13 Z" id="Path" fill="#EA5A47"></path>
                    </g>
                    <g id="line">
                        <circle id="Oval" stroke="#000000" stroke-width="2" stroke-linecap="round" stroke-linejoin="round" cx="23" cy="23" r="23"></circle>
                        <path d="M37.595,28.64 C37.607,30.1797 37.3112,31.7062 36.725,33.13 C24.235,36.16 11.295,33.47 9.235,33 C8.6762,31.6148 8.3943,30.1336 8.405,28.64 L8.515,28.64 C8.515,28.64 23.315,32.23 37.405,28.71 L37.595,28.64 Z" id="Path" stroke="#000000" stroke-width="2" stroke-linecap="round" stroke-linejoin="round"></path>
                        <path d="M36.7251,33.13 C34.9351,37.4 30.3751,40.36 23.0351,40.36 C15.6251,40.36 11.0051,37.33 9.2351,33 C11.2951,33.47 24.235,36.16 36.7251,33.13 Z" id="Path" stroke="#000000" stroke-width="2" stroke-linecap="round" stroke-linejoin="round"></path>
                        <path d="M17,18 C17,19.6568 15.6552,21 14,21 C12.3447,21 11,19.6567 11,18 C11,16.3448 12.3447,15 14,15 C15.6552,15 17,16.3448 17,18" id="Path" fill="#000000" fill-rule="nonzero"></path>
                        <path d="M35,18 C35,19.6568 33.6553,21 32,21 C30.3447,21 29,19.6567 29,18 C29,16.3448 30.3447,15 32,15 C33.6553,15 35,16.3448 35,18" id="Path" fill="#000000" fill-rule="nonzero"></path>
                    </g>
                </g>
            </g>
        </g>
    </g>
</svg>