<?xml version="1.0" encoding="UTF-8"?>
<svg width="48px" height="48px" viewBox="0 0 48 48" version="1.1" xmlns="http://www.w3.org/2000/svg" xmlns:xlink="http://www.w3.org/1999/xlink">
    <title>0A672B93-F71A-4160-8324-9374593FA863</title>
    <g id="Page-1" stroke="none" stroke-width="1" fill="none" fill-rule="evenodd">
        <g id="Constellation-Canvas" transform="translate(-196.000000, -9415.000000)">
            <g id="Emoticons" transform="translate(0.000000, 8988.000000)">
                <g id="1F625" transform="translate(196.000000, 427.000000)">
                    <g id="color" fill-rule="nonzero">
                        <path d="M1.77635684e-15,24 C1.77635684e-15,37.254834 10.745166,48 24,48 C37.254834,48 48,37.254834 48,24 C48,10.745166 37.254834,0 24,0 C10.7513799,0.0149896348 0.0149896348,10.7513799 1.77635684e-15,24 Z" id="Path" fill="#FCEA2B"></path>
                        <path d="M7.3974,43.2042024 C7.2324,43.2042024 7.0674,43.1973 6.9023,43.1842 C3.56866236,42.9147122 1.08163615,39.9985861 1.3417,36.6642 C1.7304,31.797 6.5654,27.6427 6.7705,27.4679 C7.16175415,27.1282235 7.67445065,26.9624998 8.1905,27.0089 C8.70696437,27.0485153 9.18617304,27.2929081 9.5215,27.6877 C9.962,28.2077 13.8015,32.882 13.4239,37.6232 C13.3011924,39.2272982 12.5415303,40.7155446 11.3144,41.7559 L11.3144,41.7559 C10.2239925,42.6916371 8.83426839,43.2054838 7.3974,43.2042024 L7.3974,43.2042024 Z" id="Path" fill="#92D3F5"></path>
                    </g>
                    <g id="line" transform="translate(0.997328, 1.061958)">
                        <path d="M35.0016719,22.1117416 C35.0016719,23.7685958 33.6585261,25.1117416 32.0016719,25.1117416 C30.3448176,25.1117416 29.0016719,23.7685958 29.0016719,22.1117416 C29.0016719,20.4548873 30.3448176,19.1117416 32.0016719,19.1117416 C33.6582746,19.1123487 35.0010648,20.4551388 35.0016719,22.1117416 Z" id="Path" fill="#000000" fill-rule="nonzero"></path>
                        <path d="M17.0016719,22.1117416 C17.0016719,23.7685958 15.6585261,25.1117416 14.0016719,25.1117416 C12.3448176,25.1117416 11.0016719,23.7685958 11.0016719,22.1117416 C11.0016719,20.4548873 12.3448176,19.1117416 14.0016719,19.1117416 C15.6582746,19.1123487 17.0010648,20.4551388 17.0016719,22.1117416 Z" id="Path" fill="#000000" fill-rule="nonzero"></path>
                        <path d="M12.1682719,43.2314416 C21.7740878,48.3493878 33.6532925,46.0208712 40.6161021,37.655206 C47.5789118,29.2895408 47.712447,17.1850102 40.9358867,8.66777448 C34.1593265,0.150538793 22.3343822,-2.43947803 12.6179972,2.46530885 C2.9016121,7.37009572 -2.03684982,18.4222035 0.791571884,28.9324416" id="Path" stroke="#000000" stroke-width="2" stroke-linecap="round" stroke-linejoin="round"></path>
                        <path d="M9.66817188,39.9333416 C10.692705,39.0648836 11.3270392,37.8225032 11.4296719,36.4833416 C11.7828719,32.0471416 7.92717188,27.4688416 7.76297188,27.2762416 C7.59911306,27.0839421 7.36554909,26.9646449 7.11370079,26.944614 C6.86185249,26.9245832 6.61236755,27.005461 6.42017188,27.1694416 C6.22727188,27.3339416 1.69607188,31.2447416 1.34187188,35.6817416 L1.34187188,35.6817416 C1.18068983,37.7213622 2.26346207,39.6573895 4.08567818,40.5877445 C5.90789428,41.5180996 8.111039,41.259738 9.66857188,39.9330416 L9.66817188,39.9333416 Z" id="Path" stroke="#000000" stroke-width="2"></path>
                        <path d="M29.5026719,32.9380416 C27.4497256,31.6702857 25.0726045,31.0264458 22.6604719,31.0848416 C20.4635306,31.0357508 18.3076077,31.6845793 16.5026719,32.9380416" id="Path" stroke="#000000" stroke-width="2" stroke-linecap="round" stroke-linejoin="round"></path>
                        <path d="M38.1393719,13.2358416 C36.3919216,13.7880973 34.5017384,13.6725441 32.8345719,12.9115416 C31.0876945,12.325813 29.62215,11.1094824 28.7245719,9.50044157" id="Path" stroke="#000000" stroke-width="2" stroke-linecap="round" stroke-linejoin="round"></path>
                        <path d="M7.90247188,13.2251416 C11.5175232,14.2132265 15.3511643,12.6991561 17.3154719,9.50754157" id="Path" stroke="#000000" stroke-width="2" stroke-linecap="round" stroke-linejoin="round"></path>
                    </g>
                </g>
            </g>
        </g>
    </g>
</svg>