<svg xmlns="http://www.w3.org/2000/svg" width="94" height="18" viewBox="0 0 94 18">
    <g fill="#000" fill-rule="nonzero" transform="translate(3, 8.5)">
        <path id="Line" d="M73.5,-6.5 L87.5,0.5 L73.5,7.5 L73.5,1.5 L70.5,1.5 C69.9477153,1.5 69.5,1.05228475 69.5,0.5 C69.5,-0.0128358391 69.8860402,-0.435507161 70.3833789,-0.493272269 L70.5,-0.5 L73.5,-0.5 L73.5,-6.5 Z M7.5,-0.5 C8.05228475,-0.5 8.5,-0.0522847498 8.5,0.5 C8.5,1.01283584 8.11395981,1.43550716 7.61662113,1.49327227 L7.5,1.5 L0.5,1.5 C-0.0522847498,1.5 -0.5,1.05228475 -0.5,0.5 C-0.5,-0.0128358391 -0.11395981,-0.435507161 0.383378875,-0.493272269 L0.5,-0.5 L7.5,-0.5 Z M21.5,-0.5 C22.0522847,-0.5 22.5,-0.0522847498 22.5,0.5 C22.5,1.01283584 22.1139598,1.43550716 21.6166211,1.49327227 L21.5,1.5 L14.5,1.5 C13.9477153,1.5 13.5,1.05228475 13.5,0.5 C13.5,-0.0128358391 13.8860402,-0.435507161 14.3833789,-0.493272269 L14.5,-0.5 L21.5,-0.5 Z M35.5,-0.5 C36.0522847,-0.5 36.5,-0.0522847498 36.5,0.5 C36.5,1.01283584 36.1139598,1.43550716 35.6166211,1.49327227 L35.5,1.5 L28.5,1.5 C27.9477153,1.5 27.5,1.05228475 27.5,0.5 C27.5,-0.0128358391 27.8860402,-0.435507161 28.3833789,-0.493272269 L28.5,-0.5 L35.5,-0.5 Z M49.5,-0.5 C50.0522847,-0.5 50.5,-0.0522847498 50.5,0.5 C50.5,1.01283584 50.1139598,1.43550716 49.6166211,1.49327227 L49.5,1.5 L42.5,1.5 C41.9477153,1.5 41.5,1.05228475 41.5,0.5 C41.5,-0.0128358391 41.8860402,-0.435507161 42.3833789,-0.493272269 L42.5,-0.5 L49.5,-0.5 Z M63.5,-0.5 C64.0522847,-0.5 64.5,-0.0522847498 64.5,0.5 C64.5,1.01283584 64.1139598,1.43550716 63.6166211,1.49327227 L63.5,1.5 L56.5,1.5 C55.9477153,1.5 55.5,1.05228475 55.5,0.5 C55.5,-0.0128358391 55.8860402,-0.435507161 56.3833789,-0.493272269 L56.5,-0.5 L63.5,-0.5 Z"></path>
    </g>
</svg>


