<?xml version="1.0" encoding="UTF-8"?>
<svg width="103px" height="21px" viewBox="0 0 103 21" version="1.1" xmlns="http://www.w3.org/2000/svg" xmlns:xlink="http://www.w3.org/1999/xlink">
    <g stroke="none" stroke-width="1" fill="#000000" fill-rule="evenodd" transform="translate(3, 3)">
        <path d="M94.9657779,0.497100849 L87.8973937,10.5746083 L80.8284176,0.497100849 C80.364257,-0.165700283 79.6484788,-0.165700283 79.1843182,0.497100849 L72.1224464,10.5727773 L65.0664952,0.498931674 C64.6029266,-0.162038632 63.8865564,-0.16570047 63.4218037,0.498931674 L56.3617082,10.5727773 L49.3033886,0.498931674 C48.8392281,-0.163869458 48.1228578,-0.163869458 47.6586972,0.498931674 L40.6009698,10.5727773 L33.5432423,0.498931674 C33.0790817,-0.16570047 32.3633035,-0.162038632 31.8979588,0.498931674 L24.8443757,10.5727773 L17.7943449,0.498931674 C17.3307763,-0.162038632 16.613814,-0.16570047 16.1490614,0.498931674 L9.09133392,10.5727773 L2.0347906,0.498931674 C1.54221202,-0.204150239 0.776110292,-0.152883756 0.321422375,0.603295466 C-0.132673478,1.36496754 -0.101887347,2.55141827 0.390099166,3.25266917 L8.26898826,14.5019798 C8.73314884,15.1629501 9.44951911,15.1666119 9.91367969,14.5019798 L16.9708151,4.42813419 L24.021438,14.5019798 C24.4855986,15.1647809 25.2019688,15.1647809 25.6673136,14.5019798 L32.7208967,4.42813419 L39.7786241,14.5019798 C40.2427847,15.1647809 40.959155,15.1647809 41.4233155,14.5019798 L48.481043,4.42813419 L55.5393625,14.5019798 C56.0035231,15.1647809 56.7198933,15.1647809 57.1840539,14.5019798 L64.2441495,4.42813419 L71.2995088,14.5019798 C71.7630773,15.1629501 72.4794476,15.1684429 72.9442003,14.5038108 L80.007256,4.42630337 L87.0756401,14.5038108 C87.3077204,14.8352115 87.602557,15 87.8973937,15 C88.1922305,15 88.4870671,14.8352115 88.7191475,14.503811 L96.6092853,3.25450037 C97.1018639,2.55141845 97.13265,1.36679874 96.6791462,0.605126666 C96.2256424,-0.156545406 95.4571724,-0.204150052 94.9657779,0.497100849 Z" id="Path"></path>
    </g>
</svg>