<?xml version="1.0" encoding="UTF-8"?>
<svg width="103px" height="18px" viewBox="0 0 103 18" version="1.1" xmlns="http://www.w3.org/2000/svg" xmlns:xlink="http://www.w3.org/1999/xlink">
    <g stroke="none" stroke-width="1" fill="#000000" transform="translate(3, 3)">
        <path d="M1.50597244,7.2021772 L13.4928452,7.2021772 L11.515003,10.1239014 C11.2576962,10.5018791 11.2750521,10.959879 11.5605173,11.3249664 C11.8459824,11.6900539 12.3560648,11.9066059 12.898164,11.8928553 C13.4402632,11.8791046 13.9317876,11.6371464 14.187144,11.2583407 L16.9340207,7.2021772 L18.8785123,7.2021772 L17.460278,9.47753626 C17.2199455,9.86197219 17.2571268,10.3187316 17.5578009,10.675568 C17.8584749,11.0324045 18.3769019,11.2350345 18.9175802,11.2070454 C19.4582585,11.1790562 19.9389381,10.9247055 20.178352,10.5399105 L22.2590504,7.2021772 L24.0273902,7.2021772 C23.9879812,7.65114544 24.2699339,8.07968627 24.7572378,8.31147474 C25.477386,8.64519349 26.402537,8.46000039 26.8357533,7.89540566 L27.0319003,7.63462743 C27.0319003,7.63462743 29.7491405,11.3971904 29.7506564,11.4001307 C30.1726666,11.9691007 31.0913989,12.1671358 31.8195306,11.8460818 C32.5460253,11.5167299 32.7981115,10.7837104 32.3827767,10.2082673 L30.2125016,7.2021772 L40.7796999,7.2021772 L38.8018577,10.1239014 C38.5445509,10.5018791 38.5619068,10.959879 38.847372,11.3249664 C39.1328372,11.6900539 39.6429195,11.9066059 40.1850187,11.8928553 C40.7271179,11.8791046 41.2186423,11.6371464 41.4739987,11.2583407 L44.2208754,7.2021772 L46.165367,7.2021772 L44.7471328,9.47753626 C44.5068002,9.86197219 44.5439816,10.3187316 44.8446556,10.675568 C45.1453296,11.0324045 45.6637567,11.2350345 46.2044349,11.2070454 C46.7451132,11.1790562 47.2257928,10.9247055 47.4652067,10.5399105 L49.5459051,7.2021772 L51.311304,7.2021772 C51.2711254,7.67123781 51.5811297,8.11556689 52.1040478,8.33841663 C52.8427,8.64551783 53.7559666,8.42728797 54.1566256,7.84794234 L54.3098261,7.62172653 C54.3098261,7.62172653 57.0352372,11.3966504 57.0375111,11.4001307 C57.4595213,11.9691007 58.3782536,12.1671358 59.1063853,11.8460818 C59.83288,11.5167299 60.0849662,10.7837104 59.6696314,10.2082673 L57.4993563,7.2021772 L68.0665546,7.2021772 L66.0887124,10.1239014 C65.8314056,10.5018791 65.8487615,10.959879 66.1342267,11.3249664 C66.4196919,11.6900539 66.9297742,11.9066059 67.4718734,11.8928553 C68.0139726,11.8791046 68.505497,11.6371464 68.7608534,11.2583407 L71.5077302,7.2021772 L73.4522217,7.2021772 L72.0339875,9.47753626 C71.7936549,9.86197219 71.8308363,10.3187316 72.1315103,10.675568 C72.4321843,11.0324045 72.9506114,11.2350345 73.4912897,11.2070454 C74.0319679,11.1790562 74.5126475,10.9247055 74.7520614,10.5399105 L76.8327599,7.2021772 L78.5981587,7.2021772 C78.5579782,7.67123815 78.867983,8.11556801 79.3909025,8.33841663 C80.1295435,8.64561128 81.042896,8.42736087 81.4434803,7.84794234 L81.5966809,7.62172653 L84.3243658,11.4001307 C84.746011,11.9694784 85.665181,12.1676079 86.39324,11.8460818 C87.1197347,11.5167299 87.3718209,10.7837104 86.9564861,10.2082673 L84.786211,7.2021772 L95.4940276,7.2021772 C96.3274697,7.19751285 97,6.66133034 97,6.00152327 C97,5.3417162 96.3274697,4.80553368 95.4940276,4.80086934 L83.5064423,4.80086934 L85.4849667,1.88094523 C85.7410856,1.50306757 85.7230955,1.04572557 85.4377733,0.681195525 C85.152451,0.316665483 84.6431438,0.100328197 84.1017027,0.113675833 C83.5602616,0.127023469 83.0689444,0.368028205 82.8128257,0.745905882 L80.0659489,4.80086934 L78.1999071,4.80086934 C78.2475831,4.22960095 77.7786343,3.71129165 77.080067,3.56315753 C76.3814997,3.41502341 75.6480682,3.67836291 75.3286478,4.19200678 L74.9489057,4.80086934 L72.9755507,4.80086934 C73.0234075,4.23745111 72.5679631,3.72402243 71.8822724,3.56840191 C71.1965818,3.41278139 70.4666924,3.65719335 70.1301988,4.1551042 L69.9770286,4.38186005 L67.2493133,0.604656008 C66.8337549,0.0292565785 65.9076581,-0.170510022 65.1808181,0.158464817 C64.4539782,0.487439657 64.2016346,1.22057986 64.617193,1.79597929 L66.7874984,4.80086934 L56.2195876,4.80086934 L58.198112,1.88094523 C58.5940374,1.29679699 58.3168192,0.569164077 57.5789278,0.255731617 C56.8410364,-0.0577008434 55.9218963,0.16175765 55.5259709,0.745905882 L52.7790942,4.80086934 L50.9130524,4.80086934 C50.9607284,4.22960095 50.4917796,3.71129165 49.7932123,3.56315753 C49.094645,3.41502341 48.3612135,3.67836291 48.0417931,4.19200678 L47.662051,4.80086934 L45.688696,4.80086934 C45.7365528,4.23745111 45.2811084,3.72402243 44.5954177,3.56840191 C43.909727,3.41278139 43.1798377,3.65719335 42.8433441,4.1551042 L42.6901739,4.38186005 L39.9624586,0.604656008 C39.5469002,0.0292565785 38.6208034,-0.170510022 37.8939634,0.158464817 C37.1671234,0.487439657 36.9147799,1.22057986 37.3303383,1.79597929 L39.5006437,4.80086934 L29.165126,4.80086934 L30.8772397,2.52845049 C31.1550407,2.16019645 31.1634938,1.70257449 30.8994133,1.32804746 C30.6353327,0.953520422 30.1388612,0.719019792 29.5971026,0.712921227 C29.055344,0.706822661 28.5506505,0.930053197 28.2732248,1.29848451 L25.6351317,4.80086934 L23.6261976,4.80086934 C23.6738737,4.22960095 23.2049249,3.71129165 22.5063576,3.56315753 C21.8077903,3.41502341 21.0743588,3.67836291 20.7549384,4.19200678 L20.3751963,4.80086934 L18.4018413,4.80086934 C18.4496981,4.23745111 17.9942537,3.72402243 17.308563,3.56840191 C16.6228723,3.41278139 15.892983,3.65719335 15.5564893,4.1551042 L15.3359206,4.48152702 L12.634901,1.15135422 C12.3420216,0.79064796 11.8283082,0.581035634 11.2872716,0.601476179 C10.746235,0.621916724 10.2600716,0.869304736 10.0119143,1.25045154 C9.76375711,1.63159835 9.79130707,2.08859869 10.0841864,2.44930496 L11.9924623,4.80086934 L1.50597244,4.80086934 C0.67253025,4.80553368 0,5.3417162 0,6.00152327 C0,6.66133034 0.67253025,7.19751285 1.50597244,7.2021772 L1.50597244,7.2021772 Z" />
    </g>
</svg>