<svg xmlns="http://www.w3.org/2000/svg" width="70" height="59" viewBox="0 0 70 59">
    <defs>
        <linearGradient id="lkvxgwqi1a" x1="12.707%" x2="87.293%" y1="0%" y2="92.302%">
            <stop offset="0%" stop-color="#5D8CCC"/>
            <stop offset="100%" stop-color="#31487C"/>
        </linearGradient>
        <linearGradient id="tc0uusm7mb" x1="100%" x2="0%" y1="26.219%" y2="79.755%">
            <stop offset="0%" stop-color="#C5E5F5"/>
            <stop offset="100%" stop-color="#0074DC"/>
        </linearGradient>
    </defs>
    <g fill="none" fill-rule="evenodd">
        <g fill-rule="nonzero">
            <g>
                <g>
                    <g fill="url(#lkvxgwqi1a)" transform="translate(-185.000000, -6893.000000) translate(0.000000, 6636.000000) translate(185.000000, 257.000000) translate(51.000000, 0.000000)">
                        <path d="M.01 0c1.323.254 2.654.493 3.954.807 2.9.686 5.722 1.584 8.273 2.803 1.285.627 2.524 1.324 3.564 2.16.03.045.073.086.121.125 1.328 1.033 2.37 2.285 2.83 3.663.1.325.134.658.196.987.078.395.046.795.044 1.193-.002.304-.075.608-.223.893-.207.4-.346.818-.599 1.205-.363.562-.792 1.108-1.365 1.573-.446.366-.844.76-1.29 1.125-1.246.91-2.678 1.676-4.186 2.342-.425.19-.894.322-1.332.497-1.897.743-3.901 1.335-5.949 1.822-1.325.31-2.664.593-4.026.805-.032-.178-.02-.357-.02-.536V5.66C.006 3.773-.008 1.886.01 0z"/>
                    </g>
                    <g fill="url(#tc0uusm7mb)" transform="translate(-185.000000, -6893.000000) translate(0.000000, 6636.000000) translate(185.000000, 257.000000) translate(0.000000, 5.000000)">
                        <path d="M66.718 0c.26.136.446.334.655.509 1.224 1.069 2.175 2.331 2.51 3.71.177.572.097 1.16.11 1.742-.005 5.5.01 11-.007 16.5.033.497-.113.987-.138 1.482-.185 1.099-.446 2.192-.853 3.26-.782 2.027-1.952 3.98-3.512 5.759-2.638 3.056-6.33 5.615-10.591 7.47-4.327 1.889-9.252 3.033-14.275 3.392-.476.055-.964.005-1.434.093-.91.115-1.71.647-1.89 1.31-.044.428-.01.86-.02 1.29v6.457c-.037.237-.036.487-.18.707-.13.2-.435.355-.748.312-.48-.071-.83-.334-1.191-.552C23.745 46.3 12.334 39.162.923 32.025c-.408-.232-.767-.535-.894-.906-.037-.205-.04-.416.002-.62.153-.42.584-.737 1.044-.994 11.094-6.936 22.178-13.88 33.272-20.816.432-.276.867-.551 1.314-.815.311-.166.739-.352 1.12-.19.414.166.456.553.492.858v7.56c-.054.834 1.02 1.586 2.162 1.557.382-.006.767.009 1.145-.038 3.118-.12 6.229-.403 9.283-.884.242-.032.476-.091.713-.136 1.394-.217 2.764-.507 4.119-.823 2.094-.5 4.145-1.104 6.086-1.864.448-.18.927-.314 1.363-.51 1.542-.68 3.007-1.464 4.281-2.394.457-.373.864-.777 1.32-1.15.587-.476 1.025-1.035 1.397-1.61.259-.396.401-.823.613-1.232.151-.292.226-.602.228-.913.001-.407.034-.817-.045-1.22-.064-.337-.098-.677-.2-1.01-.471-1.41-1.538-2.69-2.896-3.747-.049-.04-.092-.081-.124-.128z"/>
                    </g>
                </g>
            </g>
        </g>
    </g>
</svg>
