<?xml version="1.0" encoding="UTF-8"?>
<svg width="56px" height="49px" viewBox="0 0 56 49" version="1.1" xmlns="http://www.w3.org/2000/svg">
    <g stroke-width="1" fill="none" fill-rule="evenodd" stroke="#000000" transform="translate(0.5, 0.5)">
        <path d="M50.717914,4.31114729 C47.9474534,1.53473879 44.2691621,0.00538977627 40.3573711,0.00538977627 C36.44558,0.00538977627 32.7666177,1.53473879 29.998841,4.31249474 L27.4981129,6.82547792 L24.9953718,4.30912613 C22.2282661,1.53069646 18.5499748,0 14.6375128,0 C10.7250507,0 7.04743039,1.53002274 4.28099567,4.30912613 C-1.42699856,10.0431744 -1.42699856,19.3735508 4.28099567,25.1082727 L26.7862072,47.704236 C26.9828032,47.9016366 27.240458,48 27.4981129,48 C27.7557677,48 28.0134226,47.9016366 28.2100186,47.704236 L50.718585,25.1082727 C56.4272502,19.375572 56.4272502,10.0472167 50.717914,4.31114729 Z" id="Shape"></path>
    </g>
</svg>